HIERARCHY
ROOT Hips
{
	OFFSET 0.000000 0.000000 0.000000
	CHANNELS 6 Xposition Yposition Zposition Zrotation Yrotation Xrotation 
	JOINT LHipJoint
	{
		OFFSET 0.000000 0.000000 0.000000
		CHANNELS 3 Zrotation Yrotation Xrotation
		JOINT LeftUpLeg
		{
			OFFSET 1.363060 -1.794630 0.839290
			CHANNELS 3 Zrotation Yrotation Xrotation
			JOINT LeftLeg
			{
				OFFSET 2.448110 -6.726130 0.000000
				CHANNELS 3 Zrotation Yrotation Xrotation
				JOINT LeftFoot
				{
					OFFSET 2.562200 -7.039590 0.000000
					CHANNELS 3 Zrotation Yrotation Xrotation
					JOINT LeftToeBase
					{
						OFFSET 0.157640 -0.433110 2.322550
						CHANNELS 3 Zrotation Yrotation Xrotation
						End Site
						{
							OFFSET 0.000000 0.000000 0.000000
						}
					}
				}
			}
		}
	}
	JOINT RHipJoint
	{
		OFFSET 0.000000 0.000000 0.000000
		CHANNELS 3 Zrotation Yrotation Xrotation
		JOINT RightUpLeg
		{
			OFFSET -1.305520 -1.794630 0.839290
			CHANNELS 3 Zrotation Yrotation Xrotation
			JOINT RightLeg
			{
				OFFSET -2.542530 -6.985550 0.000000
				CHANNELS 3 Zrotation Yrotation Xrotation
				JOINT RightFoot
				{
					OFFSET -2.568260 -7.056230 0.000000
					CHANNELS 3 Zrotation Yrotation Xrotation
					JOINT RightToeBase
					{
						OFFSET -0.164730 -0.452590 2.363150
						CHANNELS 3 Zrotation Yrotation Xrotation
						End Site
						{
							OFFSET 0.000000 0.000000 0.000000
						}
					}
				}
			}
		}
	}
	JOINT LowerBack
	{
		OFFSET 0.000000 0.000000 0.000000
		CHANNELS 3 Zrotation Yrotation Xrotation
		JOINT Spine
		{
			OFFSET 0.028270 2.035590 -0.193380
			CHANNELS 3 Zrotation Yrotation Xrotation
			JOINT Spine1
			{
				OFFSET 0.056720 2.048850 -0.042750
				CHANNELS 3 Zrotation Yrotation Xrotation
				JOINT Neck
				{
					OFFSET 0.000000 0.000000 0.000000
					CHANNELS 3 Zrotation Yrotation Xrotation
					JOINT Neck1
					{
						OFFSET -0.054170 1.746240 0.172020
						CHANNELS 3 Zrotation Yrotation Xrotation
						JOINT Head
						{
							OFFSET 0.104070 1.761360 -0.123970
							CHANNELS 3 Zrotation Yrotation Xrotation
							End Site
							{
								OFFSET 0.000000 0.000000 0.000000
							}
						}
					}
				}
				JOINT LeftShoulder
				{
					OFFSET 0.000000 0.000000 0.000000
					CHANNELS 3 Zrotation Yrotation Xrotation
					JOINT LeftArm
					{
						OFFSET 3.362410 1.200890 -0.311210
						CHANNELS 3 Zrotation Yrotation Xrotation
						JOINT LeftForeArm
						{
							OFFSET 4.983000 -0.000000 -0.000000
							CHANNELS 3 Zrotation Yrotation Xrotation
							JOINT LeftHand
							{
								OFFSET 3.483560 -0.000000 -0.000000
								CHANNELS 3 Zrotation Yrotation Xrotation
								JOINT LeftFingerBase
								{
									OFFSET 0.000000 0.000000 0.000000
									CHANNELS 3 Zrotation Yrotation Xrotation
									JOINT LeftHandIndex1
									{
										OFFSET 0.715260 -0.000000 -0.000000
										CHANNELS 3 Zrotation Yrotation Xrotation
										End Site
										{
											OFFSET 0.000000 0.000000 0.000000
										}
									}
								}
								JOINT LThumb
								{
									OFFSET 0.000000 0.000000 0.000000
									CHANNELS 3 Zrotation Yrotation Xrotation
									End Site
									{
										OFFSET 0.000000 0.000000 0.000000
									}
								}
							}
						}
					}
				}
				JOINT RightShoulder
				{
					OFFSET 0.000000 0.000000 0.000000
					CHANNELS 3 Zrotation Yrotation Xrotation
					JOINT RightArm
					{
						OFFSET -3.136600 1.374050 -0.404650
						CHANNELS 3 Zrotation Yrotation Xrotation
						JOINT RightForeArm
						{
							OFFSET -5.241900 -0.000000 -0.000000
							CHANNELS 3 Zrotation Yrotation Xrotation
							JOINT RightHand
							{
								OFFSET -3.444170 -0.000000 -0.000000
								CHANNELS 3 Zrotation Yrotation Xrotation
								JOINT RightFingerBase
								{
									OFFSET 0.000000 0.000000 0.000000
									CHANNELS 3 Zrotation Yrotation Xrotation
									JOINT RightHandIndex1
									{
										OFFSET -0.622530 -0.000000 -0.000000
										CHANNELS 3 Zrotation Yrotation Xrotation
										End Site
										{
											OFFSET 0.000000 0.000000 0.000000
										}
									}
								}
								JOINT RThumb
								{
									OFFSET 0.000000 0.000000 0.000000
									CHANNELS 3 Zrotation Yrotation Xrotation
									End Site
									{
										OFFSET 0.000000 0.000000 0.000000
									}
								}
							}
						}
					}
				}
			}
		}
	}
}
MOTION
Frames: 8
Frame Time: 0.008333
-15.534000 16.840790 -23.624400 175.727512 58.277342 -179.363730 -4.095554 25.960564 0.469505 -9.071111 7.948559 -12.672030 3.669095 15.769144 51.853079 26.661049 -8.714165 6.696398 -10.961350 12.681566 -19.113859 5.751450 -30.590840 -7.723776 35.398415 6.433040 -14.355992 -10.437784 -4.651330 33.604306 -37.587896 3.930017 -10.684761 4.070317 -4.415924 -6.940661 2.395436 -5.005135 11.011164 -15.365023 -5.657481 18.011121 8.813762 8.239854 -26.329706 6.826884 -15.805009 -22.051770 2.629074 -15.577688 18.588685 -4.320072 -7.350825 -2.643552 0.939455 43.044476 -1.840629 -68.665754 -7.432571 -13.171395 -22.371937 -26.005860 -43.916602 -19.562683 -8.597588 -38.134516 0.362054 4.126981 -0.000000 0.000000 0.000000 0.000000 0.000000 0.000000 0.000000 1.110664 -17.558957 8.542289 64.186074 7.872637 46.259654 -0.932193 22.071432 5.890630 -5.406226 -7.888479 4.188865 -0.097433 -15.438150 -0.000000 0.000000 0.000000 0.000000 0.000000 0.000000 0.000000 
-15.446100 16.839875 -23.712900 175.873597 59.136389 -179.357880 -4.261901 25.834650 0.425324 -8.327764 7.067299 -13.969866 3.857374 16.575807 54.602869 27.346605 -9.474331 10.070209 -11.324394 14.331429 -18.258102 5.660279 -30.487793 -7.543268 35.677971 6.976558 -14.093471 -11.187743 -4.328531 34.639048 -36.935920 4.048983 -10.824168 4.303858 -4.615040 -7.065506 2.386763 -4.867342 11.060928 -14.764886 -5.498276 18.064188 8.581424 8.126654 -26.191944 6.882149 -15.863633 -21.990373 2.635641 -15.623738 18.443074 -4.319735 -7.347293 -2.730513 0.738368 43.014607 -1.810609 -68.825325 -7.417949 -13.583538 -22.450542 -26.308008 -43.935530 -19.680199 -8.875240 -38.247607 0.340542 3.980212 -0.000000 0.000000 0.000000 0.000000 0.000000 0.000000 0.000000 0.977982 -17.592904 8.601359 64.028260 7.888521 46.331238 -1.190135 21.424482 6.051328 -5.319141 -8.233403 4.244577 0.039875 -15.473241 -0.000000 0.000000 0.000000 0.000000 0.000000 0.000000 0.000000 
-15.364050 16.838750 -23.801100 175.992202 59.970453 -179.360595 -4.435222 25.768428 0.340998 -7.736449 6.135071 -15.290576 4.324303 17.238069 57.379239 28.690317 -10.557668 12.982125 -11.538156 15.684922 -16.895027 5.584278 -30.434223 -7.378907 35.800090 7.297494 -13.942742 -11.694413 -4.104873 35.590846 -36.541950 4.311249 -11.046872 4.464279 -4.737541 -7.197049 2.409472 -4.736964 11.197086 -14.138129 -5.361036 17.957201 8.300702 7.974717 -25.977072 6.917814 -15.890865 -21.907455 2.685448 -15.646475 18.255520 -4.308006 -7.357817 -2.834646 0.596559 42.922957 -1.703537 -69.109291 -7.395229 -14.125190 -22.497409 -26.618504 -43.936500 -19.749390 -9.111816 -38.324173 0.357971 3.895469 -0.000000 0.000000 0.000000 0.000000 0.000000 0.000000 0.000000 0.766977 -17.636413 8.659933 63.943766 7.866793 46.241838 -1.459688 21.005196 6.306908 -5.333970 -8.505703 4.403404 0.127312 -15.492400 -0.000000 0.000000 0.000000 0.000000 0.000000 0.000000 0.000000 
-15.285150 16.838975 -23.890200 176.067338 60.819565 -179.410808 -4.598563 25.836200 0.175345 -7.254095 5.317188 -16.656446 4.980998 17.762737 60.063155 30.950102 -12.165408 15.964724 -11.618175 16.814441 -15.591284 5.522812 -30.400867 -7.167365 35.714701 7.423614 -13.876790 -11.919343 -3.986584 36.366928 -36.368960 4.686091 -11.435941 4.530287 -4.770408 -7.280420 2.555447 -4.663191 11.350057 -13.670391 -5.286798 17.876986 8.040901 7.806490 -25.732543 6.919302 -15.882809 -21.870363 2.752003 -15.641362 18.073828 -4.289612 -7.368052 -2.922692 0.556825 42.723670 -1.510839 -69.394623 -7.288033 -14.611145 -22.557416 -26.875273 -44.010694 -19.946181 -9.390488 -38.508554 0.305185 3.698511 -0.000000 0.000000 0.000000 0.000000 0.000000 0.000000 0.000000 0.506998 -17.635294 8.630141 63.920340 7.908707 46.040034 -1.636722 20.738147 6.529166 -5.299746 -8.687889 4.505315 0.214047 -15.484166 -0.000000 0.000000 0.000000 0.000000 0.000000 0.000000 0.000000 
-15.209400 16.837565 -23.977950 176.148502 61.606834 -179.471475 -4.747960 25.954255 0.002508 -6.865352 4.453961 -18.065491 5.682595 18.075694 62.620683 33.240708 -14.200080 18.812856 -11.722759 17.615188 -13.700292 5.457975 -30.426688 -6.959939 35.529391 7.344949 -13.836927 -11.961069 -3.977727 36.990677 -36.442756 5.099398 -11.941435 4.517555 -4.730257 -7.365332 2.680538 -4.599053 11.519318 -13.192502 -5.224068 17.827972 7.804278 7.650424 -25.486679 6.962770 -15.956852 -21.812031 2.776060 -15.713294 17.860174 -4.289281 -7.390745 -3.027420 0.511323 42.605458 -1.329899 -69.773389 -7.254450 -15.079643 -22.674420 -27.172378 -44.019503 -20.072668 -9.493813 -38.602017 0.271637 3.579850 -0.000000 0.000000 0.000000 0.000000 0.000000 0.000000 0.000000 0.240886 -17.621754 8.616049 63.850080 7.929877 45.807715 -1.766370 20.661664 6.721349 -5.289408 -8.640907 4.603861 0.258940 -15.461813 -0.000000 0.000000 0.000000 0.000000 0.000000 0.000000 0.000000 
-15.137550 16.836425 -24.061800 176.210266 62.365416 -179.510723 -4.891333 26.124486 -0.222788 -6.605923 3.621713 -19.466473 6.406586 18.180040 64.936202 35.746514 -16.535548 21.381433 -11.794481 18.125101 -12.089336 5.392528 -30.415228 -6.760647 35.232966 7.164491 -13.826406 -11.816671 -4.016069 37.464199 -36.551766 5.595597 -12.561259 4.461539 -4.650598 -7.365980 2.829057 -4.576408 11.769304 -12.741658 -5.202808 17.722882 7.555297 7.468931 -25.259956 6.961502 -15.897920 -21.776668 2.932104 -15.666866 17.602573 -4.251714 -7.429871 -3.145814 0.516030 42.376601 -1.108165 -70.101364 -7.158140 -15.464290 -22.831627 -27.438479 -44.103367 -20.177815 -9.689583 -38.701251 0.257997 3.462946 -0.000000 0.000000 0.000000 0.000000 0.000000 0.000000 0.000000 -0.031841 -17.637427 8.553676 63.841130 7.972533 45.647684 -1.919207 20.718265 7.026745 -5.401675 -8.553702 4.832950 0.268058 -15.436244 -0.000000 0.000000 0.000000 0.000000 0.000000 0.000000 0.000000 
-15.071100 16.838060 -24.143100 176.236128 63.107407 -179.548924 -5.006528 26.309986 -0.479003 -6.473821 2.813159 -20.781005 6.992195 18.109344 67.012589 37.794100 -18.973906 23.206800 -11.913947 18.209697 -10.294719 5.344367 -30.363533 -6.575120 34.861456 6.936039 -13.848140 -11.577566 -4.107672 37.798237 -36.713279 6.039112 -13.110623 4.385819 -4.552720 -7.372045 3.004208 -4.595491 12.065059 -12.397011 -5.233169 17.599161 7.385208 7.305331 -25.049549 6.968501 -15.894439 -21.755975 3.019682 -15.666123 17.371718 -4.233165 -7.456799 -3.257060 0.536001 42.154199 -0.898978 -70.441319 -7.068675 -15.769661 -23.025218 -27.668952 -44.190072 -20.221071 -9.751085 -38.743074 0.259154 3.402791 -0.000000 0.000000 0.000000 0.000000 0.000000 0.000000 0.000000 -0.240317 -17.604927 8.464751 63.786251 8.062416 45.432999 -2.059528 20.851806 7.240125 -5.472064 -8.363503 4.980746 0.255828 -15.400296 -0.000000 0.000000 0.000000 0.000000 0.000000 0.000000 0.000000 
-15.007800 16.841075 -24.220500 176.279754 63.890386 -179.470953 -5.078357 26.508846 -0.741706 -6.480121 2.020106 -22.010447 7.490991 17.929843 68.793903 39.468385 -20.455722 23.845333 -11.893417 18.242197 -9.814010 5.347131 -30.179407 -6.477159 34.459999 6.671918 -13.844280 -11.281614 -4.224078 37.984700 -36.938469 6.499383 -13.698856 4.280964 -4.420180 -7.367916 2.913429 -4.659933 12.571229 -12.249603 -5.372100 17.285077 7.838838 7.404580 -24.931156 7.212412 -15.964299 -21.773514 2.880698 -15.749508 17.125210 -4.279691 -7.407799 -3.460776 0.572882 42.425313 -0.667489 -70.989024 -6.955165 -15.775105 -23.218541 -27.799035 -44.220645 -20.401701 -9.882755 -38.862585 0.201071 3.272232 -0.000000 0.000000 0.000000 0.000000 0.000000 0.000000 0.000000 -0.028156 -17.904686 8.358441 62.041131 8.635964 47.047918 -1.008812 22.490386 6.806221 -6.151044 -8.552426 5.241738 -0.033119 -15.552135 -0.000000 0.000000 0.000000 0.000000 0.000000 0.000000 0.000000 
